<svg width="190" height="43" viewBox="0 0 1321 295" fill="none" xmlns="http://www.w3.org/2000/svg">
<path d="M0 283.468C0 285.715 1.8619 287.536 4.15867 287.536H34.6406C36.9373 287.536 38.7992 285.715 38.7992 283.468V85.1109C38.7992 82.8637 36.9373 81.042 34.6406 81.042H4.15868C1.8619 81.042 0 82.8637 0 85.1109V283.468Z" fill="white"/>
<path d="M147.864 290.931C177.006 290.931 198.267 281.247 214.019 266.066C215.738 264.409 215.523 261.672 213.638 260.197L197.085 247.24C195.509 246.006 193.26 246.066 191.703 247.322C179.098 257.495 166.181 262.927 148.506 262.927C125.155 262.927 106.556 251.092 100.797 229.724C100.141 227.291 102.109 225.022 104.68 225.022H220.72C222.725 225.022 224.392 223.614 224.537 221.657C224.703 219.421 224.822 216.783 224.822 215.405C224.822 172.409 197.566 135.07 143.696 135.07C95.2771 135.07 60.967 170.146 60.967 212.859C60.967 259.532 98.8043 290.931 147.864 290.931ZM104.269 202.393C101.728 202.393 99.77 200.177 100.347 197.756C105.276 177.077 121.263 163.074 143.375 163.074C167.253 163.074 181.685 178.024 185.636 197.887C186.111 200.272 184.167 202.393 181.684 202.393H104.269Z" fill="white"/>
<path d="M382.438 287.536C384.735 287.536 386.597 285.715 386.597 283.468V198.998C386.597 159.114 362.227 135.919 312.205 135.919C286.497 135.919 268.87 140.344 251.532 146.902C249.425 147.699 248.39 150.016 249.188 152.084L256.869 172.002C257.679 174.102 260.074 175.159 262.235 174.405C276.159 169.547 289.443 166.468 306.754 166.468C333.689 166.468 348.439 177.783 348.439 198.433C348.439 199.85 347.053 200.873 345.655 200.501C333.401 197.238 320.698 195.038 301.623 195.038C262.183 195.038 233.003 210.879 233.003 243.975C233.003 274.525 261.221 290.648 293.286 290.648C313.736 290.648 329.091 284.716 340.326 276.148C343.307 273.875 348.118 275.814 348.118 279.512V283.468C348.118 285.715 349.98 287.536 352.277 287.536H382.438ZM349.08 233.508C349.08 252.178 329.841 264.907 304.189 264.907C285.911 264.907 271.482 256.987 271.482 242.843C271.482 227.851 285.911 219.082 310.281 219.082C323.982 219.082 336.623 221.186 346.276 224.119C347.965 224.632 349.08 226.182 349.08 227.912V233.508Z" fill="white"/>
<path d="M422.162 283.468C422.162 285.715 424.024 287.536 426.321 287.536H456.803C459.099 287.536 460.961 285.715 460.961 283.468V171.669C460.961 169.422 462.823 167.6 465.12 167.6H501.053C503.35 167.6 505.212 165.778 505.212 163.531V143.382C505.212 141.135 503.35 139.313 501.053 139.313H464.479C462.182 139.313 460.32 137.491 460.32 135.244V131.11C460.32 115.552 468.016 108.48 482.766 108.48C489.111 108.48 494.527 109.299 500.146 110.688C502.847 111.356 505.532 109.412 505.532 106.686V86.4296C505.532 84.5868 504.269 82.9669 502.439 82.5303C494.625 80.6655 485.989 79.3447 474.108 79.3447C457.434 79.3447 444.929 83.3049 435.95 91.2252C426.972 99.1456 422.162 111.592 422.162 128.281V134.961C422.162 137.208 420.3 139.03 418.003 139.03H404.837C402.54 139.03 400.678 140.852 400.678 143.099V163.531C400.678 165.778 402.54 167.6 404.837 167.6H418.003C420.3 167.6 422.162 169.422 422.162 171.669V283.468Z" fill="white"/>
<path d="M698.189 290.365C733.461 290.365 761.037 274.807 761.037 243.409C761.037 215.971 733.14 206.07 708.45 199.281C707.488 198.998 706.205 198.716 705.243 198.433C686.646 193.058 670.292 188.532 670.292 178.349C670.292 169.014 678.95 162.791 694.021 162.791C707.131 162.791 723.011 167.432 738.314 175.125C740.281 176.114 742.71 175.493 743.874 173.653L754.963 156.127C756.187 154.193 755.556 151.648 753.515 150.559C736.149 141.299 714.729 135.636 694.983 135.636C661.314 135.636 634.699 152.891 634.699 181.178C634.699 210.313 662.596 219.365 687.608 225.871C688.569 226.154 689.531 226.437 690.493 226.72C709.091 231.528 725.445 235.489 725.445 246.52C725.445 256.987 715.825 263.21 699.151 263.21C682.892 263.21 664.371 257.723 647.04 246.983C645.145 245.809 642.629 246.229 641.306 248.001L628.848 264.689C627.481 266.521 627.904 269.099 629.843 270.343C650.397 283.531 675.441 290.365 698.189 290.365Z" fill="white"/>
<path d="M935.769 294.717C955.825 294.717 970.21 287.073 981.077 276.281C983.901 273.476 989.288 275.291 989.288 279.228V287.542C989.288 289.789 991.15 291.611 993.447 291.611H1021.11C1023.4 291.611 1025.26 289.789 1025.26 287.542V89.5171C1025.26 87.2699 1023.4 85.4482 1021.11 85.4482H993.447C991.15 85.4482 989.288 87.2699 989.288 89.5171V154.041C989.288 157.889 984.149 159.73 981.301 157.076C970.559 147.069 956.104 139.389 935.769 139.389C898.307 139.389 862.925 167.348 862.925 216.771C862.925 266.758 898.901 294.717 935.769 294.717ZM944.392 265.064C920.011 265.064 899.199 246.142 899.199 217.336C899.199 187.117 919.714 169.043 944.392 169.043C968.475 169.043 989.882 187.965 989.882 216.771C989.882 245.86 968.475 265.064 944.392 265.064Z" fill="white"/>
<path d="M1124.25 295C1151.34 295 1171.08 285.284 1185.7 270.063C1187.27 268.427 1187.06 265.855 1185.33 264.39L1170.21 251.648C1168.59 250.286 1166.19 250.351 1164.59 251.731C1153 261.713 1141.09 267.041 1124.84 267.041C1103.18 267.041 1085.93 255.213 1080.6 233.859C1079.99 231.433 1081.96 229.197 1084.51 229.197H1191.51C1193.53 229.197 1195.21 227.762 1195.35 225.785C1195.5 223.564 1195.61 220.961 1195.61 219.595C1195.61 176.668 1170.33 139.389 1120.38 139.389C1075.49 139.389 1043.67 174.409 1043.67 217.053C1043.67 263.652 1078.76 295 1124.25 295ZM1084.13 206.604C1081.6 206.604 1079.65 204.417 1080.18 202.004C1084.75 181.342 1099.57 167.348 1120.09 167.348C1142.24 167.348 1155.62 182.285 1159.28 202.127C1159.72 204.505 1157.78 206.604 1155.31 206.604H1084.13Z" fill="white"/>
<path d="M1215.98 287.542C1215.98 289.789 1217.84 291.611 1220.14 291.611H1247.8C1250.09 291.611 1251.96 289.789 1251.96 287.542V89.5171C1251.96 87.2699 1250.09 85.4482 1247.8 85.4482H1220.14C1217.84 85.4482 1215.98 87.2699 1215.98 89.5171V287.542Z" fill="white"/>
<path d="M1281.73 115.551C1281.73 117.799 1283.59 119.62 1285.89 119.62H1316.22C1318.52 119.62 1320.38 117.799 1320.38 115.551V91.2116C1320.38 88.9644 1318.52 87.1427 1316.22 87.1427H1285.89C1283.59 87.1427 1281.73 88.9644 1281.73 91.2116V115.551ZM1283.21 287.542C1283.21 289.789 1285.08 291.611 1287.37 291.611H1315.03C1317.33 291.611 1319.19 289.789 1319.19 287.542V146.565C1319.19 144.318 1317.33 142.496 1315.03 142.496H1287.37C1285.08 142.496 1283.21 144.318 1283.21 146.565V287.542Z" fill="white"/>
<g clip-path="url(#clip0)">
<path d="M718.751 5.39978C717.659 2.98373 715.48 1.50364 712.495 1.84619C709.919 2.13744 649.027 9.43349 626.064 49.8511C617.7 64.5673 614.744 82.9971 617.272 104.62L653.715 148.521C654.043 148.49 654.373 148.435 654.7 148.35C677.211 142.44 707.116 129.989 721.758 104.22C744.725 63.8147 719.827 7.76933 718.751 5.39978V5.39978Z" fill="#70DA40"/>
<path d="M721.76 104.219C744.725 63.8145 719.827 7.76916 718.751 5.39962C718.223 4.23226 717.438 3.28593 716.433 2.65466L641.753 134.112L653.715 148.521C654.043 148.49 654.374 148.435 654.7 148.35C677.211 142.44 707.116 129.989 721.76 104.219V104.219Z" fill="#56C225"/>
<path d="M692.071 45.5398C689.142 43.8794 685.399 44.8981 683.735 47.8383L660.823 88.1663L655.556 69.051C654.66 65.788 651.275 63.8524 648.039 64.7817C644.782 65.6778 642.87 69.0428 643.771 72.299L652.279 103.202L640.721 123.544C639.057 126.48 640.081 130.209 643.02 131.881C644.149 132.525 645.402 132.766 646.608 132.652C648.528 132.471 650.334 131.389 651.357 129.582L662.91 109.247L693.816 100.735C697.071 99.841 698.985 96.4758 698.084 93.2196C697.187 89.9582 693.814 88.0263 690.567 88.9519L671.451 94.2148L694.369 53.8766C696.035 50.9411 695.011 47.2118 692.071 45.5398Z" fill="#56C225"/>
<path d="M643.022 131.881C644.149 132.523 645.402 132.764 646.608 132.65C648.528 132.469 650.334 131.387 651.357 129.582L662.912 109.246L693.816 100.735C697.072 99.8409 698.985 96.4741 698.084 93.2195C697.189 89.9563 693.816 88.026 690.568 88.95L671.451 94.2147L694.37 53.8765C696.036 50.9409 695.012 47.2117 692.071 45.5396L643.022 131.881Z" fill="#49A520"/>
<path d="M651.658 208.276L661.031 209.222C662.336 202.221 665.379 183.713 663.47 163.502C661.884 146.7 656.85 128.504 644.688 114.174C614.57 78.8163 553.423 82.9918 550.866 83.2333C548.332 83.7188 545.901 85.2999 545.292 87.9374C544.791 90.4414 530.771 150.113 560.899 185.593C587.426 216.746 638.242 217.639 651.582 217.117L651.658 208.276Z" fill="#90E36A"/>
<path d="M547.573 84.6223C546.466 85.4226 545.617 86.5264 545.292 87.9375C544.791 90.4415 530.771 150.114 560.899 185.593C587.426 216.746 638.242 217.639 651.581 217.117L651.657 208.46L547.573 84.6223Z" fill="#70DA40"/>
<path d="M661.031 209.222C660.694 210.852 660.432 211.982 660.333 212.238C659.71 214.753 657.558 216.676 654.879 216.929C654.879 216.929 654.879 216.929 654.759 216.94C654.515 216.963 653.419 217.067 651.581 217.117L619.613 179.068L587.672 176.433C584.338 176.256 581.726 173.309 582.025 169.963C582.312 166.497 585.271 164.006 588.616 164.304L608.417 165.875L578.3 130.516C576.1 128.022 576.473 124.178 578.969 121.977C581.584 119.764 585.416 120.017 587.629 122.632L617.746 157.992L619.317 138.19C619.615 134.844 622.452 132.366 625.918 132.653C629.252 132.829 631.742 135.788 631.443 139.132L628.942 171.184L661.031 209.222Z" fill="#70DA40"/>
<path d="M578.969 121.977C576.474 124.178 576.101 128.022 578.301 130.516L608.417 165.874L588.616 164.304C585.271 164.006 582.312 166.497 582.025 169.963C581.727 173.309 584.339 176.255 587.672 176.431L619.613 179.066L651.582 217.117C653.42 217.067 654.517 216.963 654.759 216.94L654.88 216.929C655.986 216.824 656.998 216.431 657.855 215.834L578.969 121.977Z" fill="#56C225"/>
</g>
<defs>
<clipPath id="clip0">
<rect x="524.238" y="19.6196" width="208.716" height="208.716" transform="rotate(-5.39384 524.238 19.6196)" fill="white"/>
</clipPath>
</defs>
</svg>
